<?xml version="1.0" encoding="UTF-8"?>
<svg width="256" height="256" version="1.1" viewBox="0 0 67.733 67.733" xmlns="http://www.w3.org/2000/svg">
	<defs>
		<filter id="a" x="-.10629" y="-.057942" width="1.2126" height="1.1159" color-interpolation-filters="sRGB">
			<feGaussianBlur stdDeviation="0.87595469"/>
		</filter>
	</defs>
	<g transform="translate(12.443 -57.796)">
		<path d="m21.424 85.114-3.392 7.6711-1.9034-1.3552-0.65699-0.47685-0.23717-0.14848-0.12863-0.06281-0.06633-0.01784-4e-3 0.101 0.05804 0.45298 0.11984 0.85321 0.21406 1.4557 0.36103 2.3971 1.6466 10.799-3.4058-1.678-1.3228-0.65875-0.6698-0.3143-0.28842-0.11934-0.14898-0.0548-0.0407-9e-3 -0.01909 2e-3 -0.0048 0.0133 3e-3 0.0204 0.02764 0.0774 0.05653 0.11457 0.09472 0.17687 0.2123 0.35625 0.37761 0.60549 1.5627 2.3162 4.5376 1.8886 2.8717 7.0191h-0.0038l-0.06783 0.0849-0.31556 0.13039-0.36053 0.11607-0.41329 0.1025-0.24998 0.092-0.1726 0.10301-0.10753 0.0603-0.1427 0.11129-0.31983 0.33314-0.7605 1.0361 1.6423 1.4765 0.55448 0.47911 0.41429 0.37837 0.17838 0.20426 0.06783 0.14572 0.19697 4e-3v2.5e-4h0.0105v-2.5e-4l0.19697-3e-3 0.06783-0.14571 0.17838-0.20426 0.41429-0.37862 0.55448-0.47911 1.6423-1.4765-0.7605-1.0361-0.31983-0.33289-0.1427-0.1113-0.10753-0.0603-0.1726-0.103-0.24998-0.0922-0.41329-0.10251-0.36053-0.11582-0.31556-0.13064-0.06783-0.0849h-0.0038l2.8717-7.0191 4.5376-1.8886 1.5627-2.3162 0.37761-0.60523 0.21204-0.35651 0.09497-0.17687 0.05628-0.11457 0.02789-0.0774 3e-3 -0.0201-0.0048-0.0136-0.0191-2e-3 -0.0407 8e-3 -0.14898 0.055-0.28842 0.11934-0.6698 0.3143-1.3228 0.65875-3.4058 1.678 1.6466-10.8 0.36103-2.3971 0.21406-1.4554 0.11959-0.85321 0.05829-0.45298-4e-3 -0.10099-0.06633 0.01784-0.12863 0.06256-0.23717 0.14848-0.65699 0.4771-1.9034 1.3549z" fill="#0ea5e9" filter="url(#a)"/>
		<path d="m-1.5705 61.924c-0.0691-0.01162-0.09063 0.06238-0.09924 0.17989-0.02334 0.31845 0.41374 6.2021 0.97129 13.075l1.0137 12.496 3.0737 4.9934 3.0734 4.9934-0.74819 4.7846 1.477 3.6349 1.477 3.6347 3.1674 2.0383c1.7421 1.1211 3.187 2.0584 3.2106 2.0828 0.02363 0.0243 0.20457 0.93112 0.40223 2.0152 0.39218 2.1509 0.20029 1.8159 2.4918 4.3477 0.80798 0.8927 0.90221 0.94472 1.922 1.061 0.58977 0.0672 1.1894 0.13096 1.3326 0.14171 0.14318 0.0107-0.16828-0.34963-0.69216-0.8007-0.52388-0.45108-1.2195-1.0611-1.5456-1.3557l-0.59292-0.53564 0.59091-0.79718c0.48073-0.64863 0.74495-0.83527 1.416-1.0004 0.4537-0.11167 0.86413-0.2665 0.912-0.34395 0.04786-0.0774-0.57974-1.6947-1.3946-3.594l-1.4818-3.453-4.5376-1.8888-1.2105-1.7938c-0.66575-0.98664-1.1695-1.8346-1.1195-1.8845 0.04993-0.0499 1.3952 0.5831 2.9895 1.4069 1.5943 0.82383 2.9125 1.4768 2.9294 1.4509 0.01691-0.0259-0.53646-3.6378-1.2296-8.0266-0.6931-4.3887-1.2263-8.0132-1.1851-8.0545 0.04121-0.04123 0.70297 0.40618 1.4708 0.99415 0.76778 0.58798 1.4577 1.069 1.5331 1.069s0.86601-1.7282 1.7569-3.8402l1.6197-3.8399-0.30023-0.54217c-0.16511-0.29818-0.93895-1.4715-1.7197-2.6074l-1.4198-2.0654-5.3258-3.241c-2.9292-1.7826-5.4473-3.3421-5.5958-3.4653-0.1485-0.12325-2.1644-2.7988-4.4798-5.9458-3.0514-4.1473-3.9062-5.2815-4.153-5.323zm22.994 23.19 1.6197 3.8399c0.8909 2.112 1.6816 3.8402 1.7569 3.8402 0.07535 0 0.76528-0.48104 1.5331-1.069 0.76778-0.58797 1.4295-1.0354 1.4708-0.99415 0.04123 0.04123-0.49224 3.6657-1.1853 8.0545-0.6931 4.3887-1.2462 8.0007-1.2293 8.0266 0.01692 0.0259 1.3351-0.62708 2.9294-1.4509 1.5943-0.82383 2.9396-1.4569 2.9895-1.4069 0.04993 0.0499-0.45378 0.8979-1.1195 1.8845l-1.2105 1.7938-4.5379 1.8888-1.4816 3.453c-0.81489 1.8992-1.4425 3.5165-1.3946 3.594 0.04789 0.0774 0.4583 0.23228 0.912 0.34395 0.67104 0.16516 0.93525 0.3518 1.416 1.0004l0.59091 0.79718-0.59292 0.53564c-0.32615 0.29459-1.0217 0.90461-1.5456 1.3557-0.52388 0.45107-0.83534 0.81143-0.69216 0.8007 0.14318-0.0108 0.7428-0.0745 1.3326-0.14171 1.0198-0.11626 1.114-0.16828 1.922-1.061 2.2915-2.5317 2.0996-2.1968 2.4918-4.3477 0.19767-1.0841 0.3786-1.9909 0.40223-2.0152s1.4685-0.96164 3.2106-2.0828l3.1674-2.0383 1.477-3.6347 1.477-3.6349-0.74819-4.7846 3.0734-4.9934 3.0737-4.9934 1.0138-12.496c0.55755-6.8726 0.99462-12.756 0.97129-13.075-0.03938-0.53719-0.34672-0.1655-4.2525 5.1431-2.3154 3.147-4.3313 5.8226-4.4798 5.9458-0.1485 0.12325-2.6664 1.6827-5.5956 3.4653l-5.326 3.241-1.4195 2.0654c-0.78078 1.1359-1.5546 2.3092-1.7197 2.6074z" fill="#701a75" stroke-width="0"/>
	</g>
</svg>
