<?xml version="1.0" encoding="UTF-8" standalone="no"?>
<svg
   xmlns:dc="http://purl.org/dc/elements/1.1/"
   xmlns:cc="http://creativecommons.org/ns#"
   xmlns:rdf="http://www.w3.org/1999/02/22-rdf-syntax-ns#"
   xmlns:svg="http://www.w3.org/2000/svg"
   xmlns="http://www.w3.org/2000/svg"
   xmlns:sodipodi="http://sodipodi.sourceforge.net/DTD/sodipodi-0.dtd"
   xmlns:inkscape="http://www.inkscape.org/namespaces/inkscape"
   width="160mm"
   height="160mm"
   viewBox="0 0 160 160"
   version="1.1"
   id="svg154163"
   inkscape:version="1.0.1 (3bc2e813f5, 2020-09-07)"
   sodipodi:docname="Logo0Stroke.svg"
   inkscape:export-filename="C:\Users\Younes\Desktop\logo2.png"
   inkscape:export-xdpi="126.22137"
   inkscape:export-ydpi="126.22137">
  <metadata
     id="metadata901">
    <rdf:RDF>
      <cc:Work
         rdf:about="">
        <dc:format>image/svg+xml</dc:format>
        <dc:type
           rdf:resource="http://purl.org/dc/dcmitype/StillImage" />
        <dc:title></dc:title>
      </cc:Work>
    </rdf:RDF>
  </metadata>
  <sodipodi:namedview
     id="namedview154165"
     pagecolor="#ffffff"
     bordercolor="#666666"
     borderopacity="1.0"
     inkscape:pageshadow="2"
     inkscape:pageopacity="0.0"
     inkscape:pagecheckerboard="0"
     inkscape:document-units="mm"
     showgrid="false"
     inkscape:zoom="0.70710678"
     inkscape:cx="234.48581"
     inkscape:cy="339.57937"
     inkscape:window-width="1366"
     inkscape:window-height="705"
     inkscape:window-x="-8"
     inkscape:window-y="-8"
     inkscape:window-maximized="1"
     inkscape:current-layer="layer2"
     fit-margin-top="0"
     fit-margin-left="0"
     fit-margin-right="0"
     fit-margin-bottom="0"
     inkscape:document-rotation="0" />
  <defs
     id="defs154160">
    <inkscape:path-effect
       effect="powerstroke"
       id="path-effect4134"
       is_visible="true"
       lpeversion="1"
       offset_points="4,1"
       not_jump="false"
       sort_points="true"
       interpolator_type="CubicBezierJohan"
       interpolator_beta="0.2"
       start_linecap_type="zerowidth"
       linejoin_type="extrp_arc"
       miter_limit="4"
       scale_width="1"
       end_linecap_type="zerowidth" />
    <inkscape:path-effect
       effect="powerstroke"
       id="path-effect4130"
       is_visible="true"
       lpeversion="1"
       offset_points="1,1"
       not_jump="false"
       sort_points="true"
       interpolator_type="CubicBezierJohan"
       interpolator_beta="0.2"
       start_linecap_type="zerowidth"
       linejoin_type="extrp_arc"
       miter_limit="4"
       scale_width="1"
       end_linecap_type="zerowidth" />
    <inkscape:path-effect
       effect="powerstroke"
       id="path-effect3955"
       is_visible="true"
       lpeversion="1"
       offset_points="21,1"
       not_jump="false"
       sort_points="true"
       interpolator_type="CubicBezierJohan"
       interpolator_beta="0.2"
       start_linecap_type="zerowidth"
       linejoin_type="extrp_arc"
       miter_limit="4"
       scale_width="1"
       end_linecap_type="zerowidth" />
    <inkscape:path-effect
       effect="powerstroke"
       id="path-effect3869"
       is_visible="true"
       lpeversion="1"
       offset_points="21,1"
       not_jump="false"
       sort_points="true"
       interpolator_type="CubicBezierJohan"
       interpolator_beta="0.2"
       start_linecap_type="zerowidth"
       linejoin_type="extrp_arc"
       miter_limit="4"
       scale_width="1"
       end_linecap_type="zerowidth" />
    <inkscape:path-effect
       effect="powerstroke"
       id="path-effect3832"
       is_visible="true"
       lpeversion="1"
       offset_points="26,4.99214"
       not_jump="false"
       sort_points="true"
       interpolator_type="CubicBezierJohan"
       interpolator_beta="0.2"
       start_linecap_type="zerowidth"
       linejoin_type="extrp_arc"
       miter_limit="4"
       scale_width="1"
       end_linecap_type="zerowidth" />
    <inkscape:path-effect
       effect="skeletal"
       id="path-effect3713"
       is_visible="true"
       lpeversion="1"
       pattern="M 0,4.9921382 C 0,2.2364779 2.2364779,0 4.9921382,0 c 2.7556604,0 4.9921383,2.2364779 4.9921383,4.9921382 0,2.7556604 -2.2364779,4.9921383 -4.9921383,4.9921383 C 2.2364779,9.9842765 0,7.7477986 0,4.9921382 Z"
       copytype="single_stretched"
       prop_scale="0.5"
       scale_y_rel="false"
       spacing="0"
       normal_offset="0"
       tang_offset="0"
       prop_units="false"
       vertical_pattern="false"
       hide_knot="false"
       fuse_tolerance="0" />
    <inkscape:path-effect
       effect="skeletal"
       id="path-effect3707"
       is_visible="true"
       lpeversion="1"
       pattern="M 0,4.9921382 C 0,2.2364779 2.2364779,0 4.9921382,0 c 2.7556604,0 4.9921383,2.2364779 4.9921383,4.9921382 0,2.7556604 -2.2364779,4.9921383 -4.9921383,4.9921383 C 2.2364779,9.9842765 0,7.7477986 0,4.9921382 Z"
       copytype="single_stretched"
       prop_scale="0.5"
       scale_y_rel="false"
       spacing="0"
       normal_offset="0"
       tang_offset="0"
       prop_units="false"
       vertical_pattern="false"
       hide_knot="false"
       fuse_tolerance="0" />
    <inkscape:path-effect
       effect="skeletal"
       id="path-effect3701"
       is_visible="true"
       lpeversion="1"
       pattern="M 0,4.9921382 C 0,2.2364779 2.2364779,0 4.9921382,0 c 2.7556604,0 4.9921383,2.2364779 4.9921383,4.9921382 0,2.7556604 -2.2364779,4.9921383 -4.9921383,4.9921383 C 2.2364779,9.9842765 0,7.7477986 0,4.9921382 Z"
       copytype="single_stretched"
       prop_scale="0.5"
       scale_y_rel="false"
       spacing="0"
       normal_offset="0"
       tang_offset="0"
       prop_units="false"
       vertical_pattern="false"
       hide_knot="false"
       fuse_tolerance="0" />
    <inkscape:path-effect
       effect="skeletal"
       id="path-effect3695"
       is_visible="true"
       lpeversion="1"
       pattern="M 0,4.9921382 C 0,2.2364779 2.2364779,0 4.9921382,0 c 2.7556604,0 4.9921383,2.2364779 4.9921383,4.9921382 0,2.7556604 -2.2364779,4.9921383 -4.9921383,4.9921383 C 2.2364779,9.9842765 0,7.7477986 0,4.9921382 Z"
       copytype="single_stretched"
       prop_scale="0.5"
       scale_y_rel="false"
       spacing="0"
       normal_offset="0"
       tang_offset="0"
       prop_units="false"
       vertical_pattern="false"
       hide_knot="false"
       fuse_tolerance="0" />
    <inkscape:path-effect
       effect="skeletal"
       id="path-effect3689"
       is_visible="true"
       lpeversion="1"
       pattern="M 0,4.9921382 C 0,2.2364779 2.2364779,0 4.9921382,0 c 2.7556604,0 4.9921383,2.2364779 4.9921383,4.9921382 0,2.7556604 -2.2364779,4.9921383 -4.9921383,4.9921383 C 2.2364779,9.9842765 0,7.7477986 0,4.9921382 Z"
       copytype="single_stretched"
       prop_scale="0.5"
       scale_y_rel="false"
       spacing="0"
       normal_offset="0"
       tang_offset="0"
       prop_units="false"
       vertical_pattern="false"
       hide_knot="false"
       fuse_tolerance="0" />
    <inkscape:path-effect
       effect="skeletal"
       id="path-effect3683"
       is_visible="true"
       lpeversion="1"
       pattern="M 0,4.9921382 C 0,2.2364779 2.2364779,0 4.9921382,0 c 2.7556604,0 4.9921383,2.2364779 4.9921383,4.9921382 0,2.7556604 -2.2364779,4.9921383 -4.9921383,4.9921383 C 2.2364779,9.9842765 0,7.7477986 0,4.9921382 Z"
       copytype="single_stretched"
       prop_scale="0.5"
       scale_y_rel="false"
       spacing="0"
       normal_offset="0"
       tang_offset="0"
       prop_units="false"
       vertical_pattern="false"
       hide_knot="false"
       fuse_tolerance="0" />
    <inkscape:path-effect
       effect="skeletal"
       id="path-effect3677"
       is_visible="true"
       lpeversion="1"
       pattern="M 0,4.9921382 C 0,2.2364779 2.2364779,0 4.9921382,0 c 2.7556604,0 4.9921383,2.2364779 4.9921383,4.9921382 0,2.7556604 -2.2364779,4.9921383 -4.9921383,4.9921383 C 2.2364779,9.9842765 0,7.7477986 0,4.9921382 Z"
       copytype="single_stretched"
       prop_scale="1"
       scale_y_rel="false"
       spacing="0"
       normal_offset="0"
       tang_offset="0"
       prop_units="false"
       vertical_pattern="false"
       hide_knot="false"
       fuse_tolerance="0" />
    <inkscape:path-effect
       effect="skeletal"
       id="path-effect3671"
       is_visible="true"
       lpeversion="1"
       pattern="M 0,4.9921382 C 0,2.2364779 2.2364779,0 4.9921382,0 c 2.7556604,0 4.9921383,2.2364779 4.9921383,4.9921382 0,2.7556604 -2.2364779,4.9921383 -4.9921383,4.9921383 C 2.2364779,9.9842765 0,7.7477986 0,4.9921382 Z"
       copytype="single_stretched"
       prop_scale="1"
       scale_y_rel="false"
       spacing="0"
       normal_offset="0"
       tang_offset="0"
       prop_units="false"
       vertical_pattern="false"
       hide_knot="false"
       fuse_tolerance="0" />
    <inkscape:path-effect
       effect="skeletal"
       id="path-effect3665"
       is_visible="true"
       lpeversion="1"
       pattern="M 0,4.9921382 C 0,2.2364779 2.2364779,0 4.9921382,0 c 2.7556604,0 4.9921383,2.2364779 4.9921383,4.9921382 0,2.7556604 -2.2364779,4.9921383 -4.9921383,4.9921383 C 2.2364779,9.9842765 0,7.7477986 0,4.9921382 Z"
       copytype="single_stretched"
       prop_scale="1"
       scale_y_rel="false"
       spacing="0"
       normal_offset="0"
       tang_offset="0"
       prop_units="false"
       vertical_pattern="false"
       hide_knot="false"
       fuse_tolerance="0" />
    <inkscape:path-effect
       effect="skeletal"
       id="path-effect3659"
       is_visible="true"
       lpeversion="1"
       pattern="M 0,4.9921382 C 0,2.2364779 2.2364779,0 4.9921382,0 c 2.7556604,0 4.9921383,2.2364779 4.9921383,4.9921382 0,2.7556604 -2.2364779,4.9921383 -4.9921383,4.9921383 C 2.2364779,9.9842765 0,7.7477986 0,4.9921382 Z"
       copytype="single_stretched"
       prop_scale="1"
       scale_y_rel="false"
       spacing="0"
       normal_offset="0"
       tang_offset="0"
       prop_units="false"
       vertical_pattern="false"
       hide_knot="false"
       fuse_tolerance="0" />
    <inkscape:path-effect
       effect="skeletal"
       id="path-effect3653"
       is_visible="true"
       lpeversion="1"
       pattern="M 0,4.9921382 C 0,2.2364779 2.2364779,0 4.9921382,0 c 2.7556604,0 4.9921383,2.2364779 4.9921383,4.9921382 0,2.7556604 -2.2364779,4.9921383 -4.9921383,4.9921383 C 2.2364779,9.9842765 0,7.7477986 0,4.9921382 Z"
       copytype="single_stretched"
       prop_scale="1"
       scale_y_rel="false"
       spacing="0"
       normal_offset="0"
       tang_offset="0"
       prop_units="false"
       vertical_pattern="false"
       hide_knot="false"
       fuse_tolerance="0" />
    <inkscape:path-effect
       effect="skeletal"
       id="path-effect3647"
       is_visible="true"
       lpeversion="1"
       pattern="M 0,4.9921382 C 0,2.2364779 2.2364779,0 4.9921382,0 c 2.7556604,0 4.9921383,2.2364779 4.9921383,4.9921382 0,2.7556604 -2.2364779,4.9921383 -4.9921383,4.9921383 C 2.2364779,9.9842765 0,7.7477986 0,4.9921382 Z"
       copytype="single_stretched"
       prop_scale="1"
       scale_y_rel="false"
       spacing="0"
       normal_offset="0"
       tang_offset="0"
       prop_units="false"
       vertical_pattern="false"
       hide_knot="false"
       fuse_tolerance="0" />
    <inkscape:path-effect
       effect="skeletal"
       id="path-effect3641"
       is_visible="true"
       lpeversion="1"
       pattern="M 0,4.9921382 C 0,2.2364779 2.2364779,0 4.9921382,0 c 2.7556604,0 4.9921383,2.2364779 4.9921383,4.9921382 0,2.7556604 -2.2364779,4.9921383 -4.9921383,4.9921383 C 2.2364779,9.9842765 0,7.7477986 0,4.9921382 Z"
       copytype="single_stretched"
       prop_scale="1"
       scale_y_rel="false"
       spacing="0"
       normal_offset="0"
       tang_offset="0"
       prop_units="false"
       vertical_pattern="false"
       hide_knot="false"
       fuse_tolerance="0" />
    <inkscape:path-effect
       effect="skeletal"
       id="path-effect3635"
       is_visible="true"
       lpeversion="1"
       pattern="M 0,4.9921382 C 0,2.2364779 2.2364779,0 4.9921382,0 c 2.7556604,0 4.9921383,2.2364779 4.9921383,4.9921382 0,2.7556604 -2.2364779,4.9921383 -4.9921383,4.9921383 C 2.2364779,9.9842765 0,7.7477986 0,4.9921382 Z"
       copytype="single_stretched"
       prop_scale="1"
       scale_y_rel="false"
       spacing="0"
       normal_offset="0"
       tang_offset="0"
       prop_units="false"
       vertical_pattern="false"
       hide_knot="false"
       fuse_tolerance="0" />
    <inkscape:path-effect
       effect="fill_between_many"
       method="originald"
       linkedpaths="#path6815,0,1|#path6812,0,1"
       id="path-effect6818"
       is_visible="true"
       lpeversion="0"
       join="true"
       close="true"
       autoreverse="true"
       applied="false" />
    <filter
       inkscape:collect="always"
       style="color-interpolation-filters:sRGB"
       id="filter23661"
       x="-0.070290692"
       y="-0.042434063"
       width="1.1406717"
       height="1.0848629">
      <feGaussianBlur
         inkscape:collect="always"
         stdDeviation="3.6377709"
         id="feGaussianBlur23663" />
    </filter>
    <filter
       inkscape:collect="always"
       style="color-interpolation-filters:sRGB"
       id="filter23665"
       x="-0.24291898"
       y="-0.30109444"
       width="1.485883"
       height="1.6022387">
      <feGaussianBlur
         inkscape:collect="always"
         stdDeviation="3.6377709"
         id="feGaussianBlur23667" />
    </filter>
  </defs>
  <g
     inkscape:groupmode="layer"
     id="layer1"
     inkscape:label="Background"
     transform="translate(39.298875,5.3852494)" />
  <g
     inkscape:groupmode="layer"
     id="layer2"
     inkscape:label="Layer 2"
     transform="translate(12.443064,-57.796027)">
    <path
       style="opacity:1;fill:#530b66;fill-opacity:1;stroke:#43adc5;stroke-width:0;stroke-miterlimit:4;stroke-dasharray:none;stroke-dashoffset:100;stroke-opacity:0.320652"
       d="m 67.988412,198.2083 c 0.169958,-0.14771 1.513793,-1.28504 2.986299,-2.5274 1.472507,-1.24236 2.728979,-2.3875 2.792162,-2.54477 0.06318,-0.15726 -0.370608,-0.99156 -0.963978,-1.854 -0.891215,-1.29533 -1.407893,-1.66212 -2.970646,-2.10884 -1.251842,-0.35784 -1.851639,-0.70705 -1.77309,-1.03231 0.06528,-0.27034 1.406298,-3.54364 2.980026,-7.27399 l 2.861326,-6.78245 4.694851,-1.97954 4.694854,-1.97954 2.455212,-3.65659 c 1.350367,-2.01113 2.377707,-3.7341 2.282978,-3.82883 -0.09473,-0.0947 -2.846102,1.20944 -6.114166,2.89815 -3.268062,1.6887 -5.941933,2.88972 -5.941933,2.66893 0,-0.22079 1.136716,-7.63745 2.526038,-16.48146 1.389322,-8.84402 2.441009,-16.16506 2.337083,-16.26898 -0.103926,-0.10393 -1.548122,0.87236 -3.209325,2.16952 l -3.020366,2.35847 -3.285258,-7.7502 c -1.806889,-4.26261 -3.357864,-7.93942 -3.44661,-8.17069 -0.08874,-0.23127 1.391758,-2.75161 3.290009,-5.60078 l 3.45136,-5.1803 11.476913,-7.00232 11.47691,-7.002325 8.906519,-12.114516 c 4.89858,-6.662983 8.93818,-12.07975 8.97689,-12.037258 0.0387,0.04249 -0.90467,12.191624 -2.09638,26.998069 l -2.16676,26.92081 -5.99516,9.75942 c -3.29735,5.36768 -6.146802,10.04275 -6.33213,10.38903 -0.226023,0.42233 -0.07798,2.22342 0.449649,5.47068 l 0.786601,4.84107 -3.065412,7.46807 -3.065415,7.46808 -6.628855,4.27766 -6.628855,4.27765 -0.649573,3.99784 -0.649576,3.99784 -2.946601,3.31007 c -1.620628,1.82054 -3.23759,3.41458 -3.593245,3.54231 -0.983782,0.35332 -5.234818,0.66974 -4.882346,0.36342 z"
       id="path7064" />
    <path
       style="opacity:1;fill:#530b66;fill-opacity:1;stroke:#43adc5;stroke-width:0;stroke-miterlimit:4;stroke-dasharray:none;stroke-dashoffset:100;stroke-opacity:0.320652"
       d="m 63.950019,198.1879 c -2.097527,-0.23915 -2.291202,-0.34606 -3.953116,-2.18222 -4.713301,-5.20746 -4.318513,-4.51861 -5.125178,-8.94271 -0.406566,-2.22978 -0.778973,-4.09505 -0.827571,-4.14504 -0.0486,-0.05 -3.020171,-1.97763 -6.603492,-4.28365 l -6.515129,-4.19277 -3.037957,-7.47611 -3.037953,-7.47612 0.769466,-4.92067 0.769469,-4.92067 -6.321758,-10.27088 -6.321756,-10.27088 -2.085112,-25.70193 c -1.14681,-14.136048 -2.04584,-26.237833 -1.997845,-26.892849 0.08096,-1.104916 0.712724,-0.340828 8.746323,10.578264 4.762482,6.47306 8.908971,11.97661 9.214416,12.23011 0.305449,0.2535 5.484863,3.460845 11.509812,7.127455 l 10.954453,6.66655 2.919921,4.248 c 1.605955,2.3364 3.197781,4.7498 3.537386,5.36312 l 0.617472,1.11512 -3.33175,7.8984 c -1.832464,4.34412 -3.458562,7.89841 -3.613549,7.89841 -0.154985,0 -1.573874,-0.9895 -3.153085,-2.19889 -1.579216,-1.20938 -2.940656,-2.12952 -3.025423,-2.04475 -0.08477,0.0848 1.012299,7.5399 2.437918,16.56697 1.425626,9.02706 2.563577,16.45641 2.528787,16.50967 -0.0348,0.0533 -2.746314,-1.28958 -6.025602,-2.98409 -3.279291,-1.69451 -6.04638,-2.99689 -6.149086,-2.89419 -0.102708,0.10271 0.933638,1.84715 2.302989,3.87653 l 2.489732,3.68978 4.666739,1.94232 4.666737,1.94233 3.047497,7.10266 c 1.676122,3.90646 2.966945,7.233 2.868493,7.3923 -0.09846,0.1593 -0.94253,0.47756 -1.875723,0.70724 -1.380226,0.33971 -1.923447,0.72353 -2.912248,2.05767 l -1.215541,1.64007 1.219703,1.1017 c 0.670838,0.60593 2.101331,1.8608 3.178881,2.7886 1.077545,0.92779 1.71822,1.66884 1.423718,1.64676 -0.2945,-0.0221 -1.527969,-0.15329 -2.741038,-0.29161 z"
       id="path7103" />
    <path
       style="opacity:1;mix-blend-mode:normal;fill:#0affe7;fill-opacity:0.498835;stroke:#43adc5;stroke-width:2.51649;stroke-miterlimit:4;stroke-dasharray:none;stroke-dashoffset:100;stroke-opacity:0.320652;filter:url(#filter23661)"
       d="m 400.4882,736.79475 c -1.20183,-3.23138 -6.19771,-15.26523 -11.10197,-26.74188 l -8.91682,-20.86664 -17.77581,-7.41505 -17.77582,-7.41504 -6.67811,-9.98523 c -3.67297,-5.49186 -6.67812,-10.14877 -6.67812,-10.34867 0,-0.1999 8.8559,4.08399 19.67978,9.51976 15.12642,7.59652 19.92593,9.72643 20.74368,9.20554 2.08288,-1.32675 1.82539,-3.63199 -5.99978,-53.7147 -7.64603,-48.9361 -10.33115,-67.24939 -9.92042,-67.66012 0.17927,-0.17927 3.16333,1.77202 6.63125,4.33619 10.87263,8.03924 11.82011,8.56574 13.79524,7.66581 2.11516,-0.96373 6.02184,-9.05994 17.85747,-37.00785 4.59192,-10.84306 8.56607,-19.49469 8.83146,-19.22584 0.50774,0.51437 1.01134,1.68389 15.7512,36.57944 5.09344,12.05831 9.4748,22.15997 9.73636,22.44813 0.26158,0.28815 5.1576,-3.09759 10.88005,-7.52387 5.72245,-4.42627 10.46711,-7.9892 10.54369,-7.91761 0.22126,0.20683 -5.38979,37.88099 -11.86699,79.67831 -3.49922,22.58046 -5.75219,39.00858 -5.45832,39.80088 0.39533,1.06586 1.08547,1.33682 3.28642,1.29032 2.14074,-0.0452 6.78928,-2.0423 20.07045,-8.62254 9.50644,-4.71004 17.40021,-8.44793 17.5417,-8.30644 0.14149,0.14148 -2.66455,4.62876 -6.23563,9.97173 l -6.49289,9.71448 -7.51576,3.18451 c -4.13367,1.75148 -12.22103,5.16471 -17.97192,7.58495 l -10.45617,4.40044 -1.42812,3.5458 c -2.23806,5.55671 -20.59756,49.40143 -20.75238,49.55921 -0.0762,0.0777 -1.12188,-2.50264 -2.32372,-5.73402 z"
       id="path9622"
       transform="matrix(0.26458333,0,0,0.26458333,-39.150887,-8.8631655)"
       inkscape:export-filename="C:\Users\Younes\Desktop\path9622.png"
       inkscape:export-xdpi="19.0623"
       inkscape:export-ydpi="19.0623" />
    <path
       style="opacity:1;mix-blend-mode:normal;fill:#0affe7;fill-opacity:0.498835;stroke:#43adc5;stroke-width:2.51649;stroke-miterlimit:4;stroke-dasharray:none;stroke-dashoffset:100;stroke-opacity:0.320652;filter:url(#filter23665)"
       d="m 401.71903,780.57863 c 0,-0.32885 -4.40171,-4.46668 -9.78157,-9.19517 -5.37987,-4.72849 -9.78157,-8.8202 -9.78157,-9.09268 0,-0.69112 2.47273,-3.91123 5.32505,-6.93455 1.83178,-1.94159 3.52875,-2.87735 7.13995,-3.93718 2.60539,-0.76463 5.67089,-1.92977 6.81222,-2.5892 1.7576,-1.0155 2.26287,-1.06169 3.30195,-0.3019 0.67474,0.49338 3.59308,1.6851 6.4852,2.64826 5.65691,1.88393 8.93663,4.65873 11.2565,9.52354 1.10275,2.3125 1.09499,2.4404 -0.21321,3.51191 -0.74671,0.6116 -5.48923,4.6789 -10.53895,9.03845 -5.04971,4.35954 -9.36676,7.92644 -9.59344,7.92644 -0.22667,0 -0.41213,-0.26906 -0.41213,-0.59792 z"
       id="path9661"
       transform="matrix(0.26458333,0,0,0.26458333,-39.150887,-8.8631655)" />
  </g>
</svg>
