{
    "asset" : {
        "generator" : "Khronos glTF Blender I/O v1.7.33",
        "version" : "2.0"
    },
    "scene" : 0,
    "scenes" : [
        {
            "name" : "Scene",
            "nodes" : [
                0
            ]
        }
    ],
    "nodes" : [
        {
            "mesh" : 0,
            "name" : "Cube.010",
            "scale" : [
                10,
                10,
                10
            ]
        }
    ],
    "materials" : [
        {
            "doubleSided" : true,
            "name" : "SVGMat",
            "pbrMetallicRoughness" : {
                "metallicFactor" : 0,
                "roughnessFactor" : 0.5
            }
        },
        {
            "doubleSided" : true,
            "name" : "SVGMat.002",
            "pbrMetallicRoughness" : {
                "baseColorFactor" : [
                    0.027320832014083862,
                    0.21223080158233643,
                    0.9301110506057739,
                    1
                ],
                "metallicFactor" : 0,
                "roughnessFactor" : 0.5
            }
        },
        {
            "doubleSided" : true,
            "name" : "SVGMat.001",
            "pbrMetallicRoughness" : {
                "baseColorFactor" : [
                    0.07036009430885315,
                    0.3613068461418152,
                    0.8713672757148743,
                    1
                ],
                "metallicFactor" : 0,
                "roughnessFactor" : 0.5
            }
        }
    ],
    "meshes" : [
        {
            "name" : "Cube.014",
            "primitives" : [
                {
                    "attributes" : {
                        "POSITION" : 0,
                        "NORMAL" : 1,
                        "TEXCOORD_0" : 2
                    },
                    "indices" : 3,
                    "material" : 0
                },
                {
                    "attributes" : {
                        "POSITION" : 4,
                        "NORMAL" : 5,
                        "TEXCOORD_0" : 6
                    },
                    "indices" : 7,
                    "material" : 1
                },
                {
                    "attributes" : {
                        "POSITION" : 8,
                        "NORMAL" : 9,
                        "TEXCOORD_0" : 10
                    },
                    "indices" : 11,
                    "material" : 2
                }
            ]
        }
    ],
    "accessors" : [
        {
            "bufferView" : 0,
            "componentType" : 5126,
            "count" : 701,
            "max" : [
                1.0152487754821777,
                1.4655444622039795,
                0.18913796544075012
            ],
            "min" : [
                -1.0152487754821777,
                -1.0255200862884521,
                6.850979872297103e-08
            ],
            "type" : "VEC3"
        },
        {
            "bufferView" : 1,
            "componentType" : 5126,
            "count" : 701,
            "type" : "VEC3"
        },
        {
            "bufferView" : 2,
            "componentType" : 5126,
            "count" : 701,
            "type" : "VEC2"
        },
        {
            "bufferView" : 3,
            "componentType" : 5123,
            "count" : 1413,
            "type" : "SCALAR"
        },
        {
            "bufferView" : 4,
            "componentType" : 5126,
            "count" : 41,
            "max" : [
                0.397000789642334,
                0.5099017024040222,
                0.14328491687774658
            ],
            "min" : [
                -0.397000789642334,
                -1.0032689571380615,
                0.14328491687774658
            ],
            "type" : "VEC3"
        },
        {
            "bufferView" : 5,
            "componentType" : 5126,
            "count" : 41,
            "type" : "VEC3"
        },
        {
            "bufferView" : 6,
            "componentType" : 5126,
            "count" : 41,
            "type" : "VEC2"
        },
        {
            "bufferView" : 7,
            "componentType" : 5123,
            "count" : 117,
            "type" : "SCALAR"
        },
        {
            "bufferView" : 8,
            "componentType" : 5126,
            "count" : 5172,
            "max" : [
                2.4746694564819336,
                2.8187360763549805,
                0.44441747665405273
            ],
            "min" : [
                -2.486926794052124,
                -2.1428658962249756,
                -0.3885243833065033
            ],
            "type" : "VEC3"
        },
        {
            "bufferView" : 9,
            "componentType" : 5126,
            "count" : 5172,
            "type" : "VEC3"
        },
        {
            "bufferView" : 10,
            "componentType" : 5126,
            "count" : 5172,
            "type" : "VEC2"
        },
        {
            "bufferView" : 11,
            "componentType" : 5123,
            "count" : 29988,
            "type" : "SCALAR"
        }
    ],
    "bufferViews" : [
        {
            "buffer" : 0,
            "byteLength" : 8412,
            "byteOffset" : 0
        },
        {
            "buffer" : 0,
            "byteLength" : 8412,
            "byteOffset" : 8412
        },
        {
            "buffer" : 0,
            "byteLength" : 5608,
            "byteOffset" : 16824
        },
        {
            "buffer" : 0,
            "byteLength" : 2826,
            "byteOffset" : 22432
        },
        {
            "buffer" : 0,
            "byteLength" : 492,
            "byteOffset" : 25260
        },
        {
            "buffer" : 0,
            "byteLength" : 492,
            "byteOffset" : 25752
        },
        {
            "buffer" : 0,
            "byteLength" : 328,
            "byteOffset" : 26244
        },
        {
            "buffer" : 0,
            "byteLength" : 234,
            "byteOffset" : 26572
        },
        {
            "buffer" : 0,
            "byteLength" : 62064,
            "byteOffset" : 26808
        },
        {
            "buffer" : 0,
            "byteLength" : 62064,
            "byteOffset" : 88872
        },
        {
            "buffer" : 0,
            "byteLength" : 41376,
            "byteOffset" : 150936
        },
        {
            "buffer" : 0,
            "byteLength" : 59976,
            "byteOffset" : 192312
        }
    ],
    "buffers" : [
        {
            "byteLength" : 252288,
            "uri" : "data:application/octet-stream;base64,"
        }
    ]
}
